# xmcd
#
# Track frame offsets:
#        200
#        16155
#        30807
#        48687
#        66127
#        82245
#        95362
#        106740
#        118095
#        135980
#        152732
#        162857
#
# Disc length: 2496 seconds
#
# Revision: 0
# Processed by: cddbd v1.5.1PL0 Copyright (c) Steve Scherf et al.
# Submitted via: ExactAudioCopy v0.95a5
#
DISCID=8c09be0c
DTITLE=`Elua Kane - `Ukulele Boy
DYEAR=1997
DGENRE=Hawaiian
TTITLE0=`Ukulele Boy
TTITLE1=Na Ali`i
TTITLE2=Floating Leis
TTITLE3=Lei Kupukupu
TTITLE4=He U`i `O Pualani
TTITLE5=You're At A Lu`au Now
TTITLE6=Hoe Hoe Na Wa`a
TTITLE7=Papa Sia
TTITLE8=Naupaka
TTITLE9=Ballad Of A Cowboy
TTITLE10=Let's Go Around The Island
TTITLE11=He Aloha Hawai`i
EXTD=
EXTT0=
EXTT1=
EXTT2=
EXTT3=
EXTT4=
EXTT5=
EXTT6=
EXTT7=
EXTT8=
EXTT9=
EXTT10=
EXTT11=
PLAYORDER=
